<svg width="133" height="34" viewBox="0 0 133 34" fill="none" xmlns="http://www.w3.org/2000/svg">
<path d="M68.8157 3.05176e-05V3.01035H129.259V14.2957H132.262V2.99709V3.05176e-05H68.8157ZM129.259 30.9652H68.8157V33.9755H129.259H132.262V30.9652V19.6798H129.259V30.9652ZM0 3.05176e-05V3.01035V14.2957H3.00234V2.99709H63.4459V3.05176e-05H0ZM2.98912 19.6798H0V30.9652V33.9755H3.00234H63.4459V30.9652H3.00234V19.6798H2.98912Z" fill="white"/>
<path d="M49.3206 13.6447C48.6064 13.2999 47.8261 13.1275 46.9532 13.1275C46.2522 13.1275 45.657 13.2336 45.1412 13.459C44.6254 13.6845 44.1889 13.9629 43.845 14.321C43.6863 14.4801 43.5408 14.6525 43.4086 14.8249V9.00321H40.5649V24.9433H43.4086V18.9757C43.4086 18.2596 43.5144 17.6496 43.7392 17.1191C43.964 16.6019 44.2815 16.1908 44.7179 15.9256C45.1544 15.6471 45.657 15.5145 46.2522 15.5145C47.1119 15.5145 47.76 15.7797 48.1964 16.3235C48.6329 16.8672 48.8445 17.6496 48.8445 18.6972V24.9433H51.6881V18.4585C51.6881 17.1324 51.4765 16.0848 51.04 15.3156C50.6036 14.5464 50.0216 13.9895 49.3206 13.6447ZM36.7293 18.3259C35.9887 18.1137 35.1819 17.9679 34.2957 17.875C33.7402 17.7955 33.2509 17.7292 32.8276 17.6628C32.4044 17.5965 32.087 17.4772 31.8753 17.3181C31.6505 17.1589 31.5447 16.907 31.5447 16.5754C31.5447 16.1511 31.7431 15.8195 32.1531 15.5676C32.5631 15.3289 33.1054 15.2095 33.7667 15.2095C34.4677 15.2095 35.0364 15.3554 35.4729 15.6604C35.9093 15.9654 36.1606 16.3632 36.2003 16.8672H38.9513C38.872 15.6737 38.3562 14.7454 37.3906 14.0956C36.4251 13.4458 35.1951 13.1142 33.7005 13.101C32.735 13.101 31.8753 13.2468 31.1479 13.5518C30.4072 13.8569 29.8385 14.2945 29.4153 14.8514C29.0053 15.4084 28.7936 16.0715 28.7936 16.8274C28.7936 17.4374 28.9127 17.9413 29.164 18.3259C29.4153 18.7238 29.7592 19.042 30.1824 19.2675C30.6189 19.5062 31.1214 19.6918 31.7034 19.8244C32.2853 19.9571 32.9202 20.0631 33.5947 20.1427C34.2031 20.2223 34.7057 20.2886 35.1157 20.3682C35.5258 20.4477 35.83 20.5671 36.0416 20.7395C36.2532 20.9119 36.359 21.1771 36.359 21.5484C36.359 21.8402 36.2664 22.0921 36.068 22.3176C35.8696 22.543 35.6051 22.7022 35.248 22.8082C34.9041 22.9143 34.4941 22.9674 34.018 22.9674C33.1715 22.9674 32.5102 22.795 32.0473 22.4369C31.5844 22.0789 31.3198 21.6147 31.2802 21.0577H28.5556C28.5953 22.3176 29.1243 23.2989 30.1295 24.0018C31.1347 24.7046 32.4176 25.0627 34.018 25.0627C35.0232 25.0627 35.8961 24.9168 36.6632 24.6118C37.4303 24.3068 38.0387 23.8691 38.4752 23.3122C38.9249 22.7552 39.1497 22.0921 39.1497 21.3495C39.1497 20.4742 38.9249 19.7979 38.4884 19.3205C38.0652 18.8829 37.4832 18.5381 36.7293 18.3259ZM24.3629 24.9566H27.2065V13.2734H24.3629V24.9566ZM25.7913 8.53906C25.3284 8.53906 24.9184 8.6982 24.6009 9.00321C24.2703 9.30822 24.1116 9.71932 24.1116 10.1967C24.1116 10.6609 24.2703 11.0587 24.6009 11.3637C24.9316 11.6687 25.3284 11.8279 25.7913 11.8279C26.2542 11.8279 26.6642 11.6687 26.9817 11.3637C27.3123 11.0587 27.471 10.6609 27.471 10.1967C27.471 9.70606 27.3123 9.30822 26.9817 9.00321C26.6642 8.68494 26.2674 8.53906 25.7913 8.53906ZM56.6083 22.238C56.4231 22.0523 56.3305 21.7473 56.3305 21.3097V16.1113H59.0948V13.2601H56.3305V10.1835H53.4869V13.2601V15.7002V21.6943C53.4869 22.7685 53.7514 23.5907 54.2805 24.1344C54.8095 24.6781 55.6295 24.9566 56.7273 24.9566H59.1741V22.5165H57.5209C57.1109 22.5165 56.7934 22.4237 56.6083 22.238ZM18.9005 10.0111C17.6837 9.348 16.242 9.00321 14.602 9.00321H8.99408V24.9433H14.602C16.2552 24.9433 17.6837 24.6118 18.9005 23.9355C20.1173 23.2591 21.0696 22.3176 21.7441 21.1241C22.4186 19.9305 22.7493 18.5381 22.7493 16.96C22.7493 15.3819 22.4186 14.0027 21.7441 12.8092C21.0696 11.6157 20.1173 10.6874 18.9005 10.0111ZM19.0989 19.7847C18.7021 20.6069 18.1334 21.2434 17.3795 21.6943C16.6256 22.1452 15.6997 22.3839 14.602 22.3839H11.9964V11.5892H14.602C15.6865 11.5892 16.6123 11.8146 17.3795 12.2655C18.1334 12.7164 18.7153 13.3397 19.0989 14.1486C19.4957 14.9575 19.694 15.8991 19.694 16.9733C19.6808 18.0209 19.4957 18.9625 19.0989 19.7847ZM67.3611 13.2734H66.8189C66.065 13.2734 65.4433 13.3927 64.954 13.6181C64.4646 13.8436 64.081 14.1486 63.7901 14.5199C63.6578 14.6923 63.5388 14.8647 63.4197 15.0636L63.1288 13.2866H60.5893V24.9698H63.433V19.1879C63.433 18.5779 63.5255 18.0342 63.6975 17.5435C63.8694 17.0528 64.1604 16.655 64.5572 16.35C64.954 16.045 65.4962 15.8991 66.184 15.8991H67.3611V13.2734ZM85.0974 15.9521C85.5471 15.6471 86.0761 15.5013 86.6845 15.5013C87.3723 15.5013 87.9278 15.6869 88.3643 16.045C88.8007 16.403 89.0917 16.907 89.224 17.5435H92.1999C91.9618 16.1776 91.3666 15.1034 90.4408 14.3077C89.5149 13.5121 88.2717 13.1275 86.7242 13.1275C85.5074 13.1275 84.4625 13.3794 83.5632 13.8701C82.6638 14.3608 81.976 15.0636 81.4867 15.9654C80.9973 16.8672 80.746 17.9148 80.746 19.1216C80.746 20.3416 80.9841 21.3893 81.4602 22.291C81.9363 23.1928 82.6241 23.8824 83.5103 24.3598C84.3964 24.8505 85.4413 25.0892 86.6316 25.0892C88.1659 25.0892 89.4091 24.6913 90.3879 23.8824C91.3666 23.0735 91.9618 21.9993 92.1866 20.6466H89.2107C89.0785 21.2832 88.7875 21.7871 88.351 22.1717C87.9146 22.5563 87.3459 22.7419 86.6713 22.7419C86.0629 22.7419 85.5339 22.5961 85.0842 22.291C84.6345 21.986 84.2774 21.5617 84.0261 21.018C83.7748 20.4742 83.6558 19.8377 83.6558 19.1216C83.6558 18.4055 83.7748 17.7822 84.0261 17.2252C84.2906 16.6815 84.6477 16.2571 85.0974 15.9521ZM104.646 13.2734H101.392L96.4851 18.5779V9.01647H93.6415V24.9566H96.4851V22.0656L98.3897 20.0101L101.59 24.9566H104.884L100.347 17.9413L104.646 13.2734ZM113.772 13.8171C112.912 13.3662 111.907 13.1275 110.756 13.1275C109.592 13.1275 108.574 13.3794 107.688 13.8834C106.815 14.3873 106.127 15.0769 105.638 15.9787C105.148 16.8804 104.897 17.9281 104.897 19.1481C104.897 20.3284 105.148 21.376 105.638 22.2645C106.127 23.1663 106.828 23.8559 107.754 24.3466C108.666 24.8372 109.751 25.0892 110.994 25.0892C111.999 25.0892 112.872 24.9035 113.639 24.5455C114.407 24.1874 115.015 23.6967 115.491 23.0735C115.954 22.4634 116.258 21.7739 116.377 21.018H113.587C113.415 21.6147 113.097 22.0656 112.621 22.3971C112.145 22.7287 111.563 22.8878 110.888 22.8878C110.293 22.8878 109.777 22.7685 109.328 22.5298C108.878 22.291 108.534 21.9463 108.296 21.4954C108.058 21.0445 107.913 20.514 107.886 19.9173V19.8244V19.7581H116.496C116.523 19.5857 116.549 19.4266 116.549 19.2409C116.562 19.0685 116.562 18.8962 116.562 18.7238C116.549 17.5833 116.298 16.6019 115.809 15.7665C115.306 14.9178 114.631 14.268 113.772 13.8171ZM107.939 17.7822C108.005 17.265 108.164 16.8274 108.428 16.4693C108.693 16.1113 109.037 15.8328 109.447 15.6206C109.857 15.4217 110.306 15.3156 110.769 15.3156C111.576 15.3156 112.224 15.5278 112.74 15.9521C113.256 16.3765 113.56 16.9865 113.653 17.7689H107.939V17.7822ZM124.22 13.2734C123.466 13.2734 122.845 13.3927 122.355 13.6181C121.866 13.8436 121.483 14.1486 121.192 14.5199C121.059 14.6923 120.94 14.8647 120.821 15.0636L120.53 13.2866H117.991V24.9698H120.834V19.1879C120.834 18.5779 120.927 18.0342 121.099 17.5435C121.271 17.0528 121.562 16.655 121.959 16.35C122.355 16.045 122.898 15.8991 123.586 15.8991H124.763V13.2999H124.22V13.2734ZM76.5136 14.8912C76.2227 14.4934 75.8655 14.1486 75.4291 13.8303C74.7413 13.3397 73.8816 13.101 72.8235 13.101C71.7919 13.101 70.8661 13.3529 70.046 13.8436C69.226 14.3343 68.5647 15.0371 68.0886 15.9389C67.6124 16.8406 67.3744 17.8883 67.3744 19.0951C67.3744 20.3416 67.6124 21.4158 68.0886 22.3043C68.5647 23.2061 69.2128 23.8824 70.046 24.3598C70.8661 24.8372 71.8051 25.0759 72.85 25.0759C73.9081 25.0759 74.7678 24.824 75.4423 24.3068C75.8788 23.9752 76.2359 23.6039 76.5401 23.2061L76.8178 24.9433H79.3176V13.2601H76.8178L76.5136 14.8912ZM76.1301 21.0047C75.8788 21.5484 75.5084 21.9728 75.0455 22.2778C74.5826 22.5828 74.0403 22.7419 73.4055 22.7419C72.7706 22.7419 72.2151 22.5828 71.7522 22.2778C71.2761 21.9728 70.919 21.5352 70.6677 21.0047C70.4164 20.461 70.2841 19.8377 70.2841 19.1216C70.2841 18.4055 70.4164 17.7822 70.6677 17.2252C70.919 16.6815 71.2893 16.2571 71.7522 15.9521C72.2151 15.6471 72.7706 15.5013 73.4055 15.5013C74.0403 15.5013 74.5958 15.6471 75.0455 15.9521C75.5084 16.2571 75.8655 16.6815 76.1301 17.2385C76.3814 17.7955 76.5136 18.432 76.5136 19.1349C76.5136 19.8377 76.3814 20.461 76.1301 21.0047Z" fill="white"/>
</svg>
