<svg width="119" height="35" viewBox="0 0 119 35" fill="none" xmlns="http://www.w3.org/2000/svg">
<g clip-path="url(#clip0_125_202)">
<path d="M-0.00012207 15.4003V0.000289917H15.3863V3.34244H3.31991L3.35446 6.03107H12.0625L12.028 9.36951H3.31991V15.4003H-0.00012207Z" fill="white"/>
<path d="M20.3558 15.4003C19.7754 15.4003 19.2385 15.2551 18.7452 14.9646C18.2518 14.6742 17.8601 14.282 17.5699 13.7883C17.2796 13.2945 17.1346 12.7572 17.1346 12.1762V0.000289917H20.4683V12.0692H29.1873V0.000289917H32.521V12.1762C32.521 12.7572 32.3686 13.2945 32.0639 13.7883C31.7737 14.282 31.382 14.6742 30.8886 14.9646C30.4098 15.2551 29.8802 15.4003 29.2998 15.4003H20.3558Z" fill="white"/>
<path d="M54.6251 15.4003C54.0447 15.4003 53.5079 15.2551 53.0145 14.9646C52.5212 14.6742 52.1294 14.282 51.8392 13.7883C51.549 13.2945 51.4039 12.7572 51.4039 12.1762V0.000289917H54.7376V12.0692H63.4566V0.000289917H66.7903V12.1762C66.7903 12.7572 66.638 13.2945 66.3333 13.7883C66.0431 14.282 65.6513 14.6742 65.158 14.9646C64.6792 15.2551 64.1495 15.4003 63.5691 15.4003H54.6251Z" fill="white"/>
<path d="M40.2956 15.4003V3.33691H34.2692V0.000289917H49.6556V3.33691H43.6293V15.4003H40.2956Z" fill="white"/>
<path d="M57.4303 34.9997V22.9363H51.4039V19.5997H66.7903V22.9363H60.764V34.9997H57.4303Z" fill="white"/>
<path d="M80.5822 15.4003L76.0327 10.2389H80.4514L83.925 14.2457V15.4003H80.5822ZM68.5386 15.4003V0.000289917H80.6819C81.2771 0.000289917 81.8135 0.14554 82.2926 0.43597C82.7857 0.7264 83.1773 1.11854 83.4676 1.61232C83.7725 2.1061 83.925 2.64342 83.925 3.22435V7.21344C83.925 7.79437 83.7725 8.33169 83.4676 8.82547C83.1773 9.31925 82.7857 9.71139 82.2926 10.0018C81.8135 10.2923 81.2771 10.4375 80.6819 10.4375H71.8722V15.4003H68.5386ZM71.8722 7.10088H80.5913V3.34272H71.8722V7.10088Z" fill="white"/>
<path d="M3.14954 34.9997C2.56787 34.9997 2.03585 34.8571 1.55341 34.5719C1.08525 34.2867 0.70926 33.9088 0.425521 33.4383C0.141782 32.9534 -0.00012207 32.4187 -0.00012207 31.8341V22.7652C-0.00012207 22.1806 0.141782 21.653 0.425521 21.1825C0.70926 20.6976 1.08525 20.3126 1.55341 20.0275C2.03578 19.7422 2.5678 19.5997 3.14954 19.5997H15.3863V22.9363H4.03244C3.80542 22.9363 3.62813 22.9934 3.50042 23.1075C3.38691 23.2216 3.33019 23.3998 3.33019 23.6422V30.9572C3.33019 31.1854 3.38691 31.3636 3.50042 31.4919C3.62813 31.606 3.80542 31.6631 4.03244 31.6631H15.3863V34.9998L3.14954 34.9997Z" fill="white"/>
<path d="M17.1346 34.9997V22.8237C17.1346 22.2283 17.2797 21.6909 17.5699 21.2117C17.8601 20.7179 18.2518 20.3258 18.7452 20.0354C19.2385 19.7449 19.7754 19.5997 20.3558 19.5997H29.2779C29.8729 19.5997 30.4097 19.7449 30.8886 20.0354C31.382 20.3258 31.7737 20.7179 32.0639 21.2117C32.3686 21.6909 32.521 22.2283 32.521 22.8237V34.9997H29.1873V30.2304H20.4683V34.9997H17.1346ZM20.4683 26.832H29.1873V22.998H20.4683V26.832Z" fill="white"/>
<path d="M34.2692 34.9997V19.5997H37.6912L46.3219 29.9138V19.5997H49.6556V34.9997H46.2567L37.6018 24.642V34.9997H34.2692Z" fill="white"/>
<path d="M102.808 34.9997V19.5997H106.23L114.861 29.9138V19.5997H118.194V34.9997H114.795L106.14 24.642V34.9997H102.808Z" fill="white"/>
<path d="M68.5386 34.9997V19.5997H83.925V22.9363H71.9558V25.6314H80.5913V28.968H71.9558V31.6631H83.925V34.9997H68.5386Z" fill="white"/>
<path d="M85.6733 34.9997V19.5997H101.06V22.9363H89.0905V25.6314H97.726V28.968H89.0905V31.6631H101.06V34.9997H85.6733Z" fill="white"/>
<path d="M85.6733 15.4003V0.000289917H101.06V3.33691H89.0905V6.03198H97.726V9.3686H89.0905V12.0637H101.06V15.4003H85.6733Z" fill="white"/>
</g>
<defs>
<clipPath id="clip0_125_202">
<rect width="118.195" height="35" fill="white"/>
</clipPath>
</defs>
</svg>
