<svg id="Ebene_1" data-name="Ebene 1" xmlns="http://www.w3.org/2000/svg" viewBox="0 0 100 100"><defs><style>.cls-1{fill:#fff;}</style></defs><path id="Path_2520" data-name="Path 2520" class="cls-1" d="M85.21,85.21H70.39V62c0-5.53-.1-12.65-7.71-12.65s-8.89,6-8.89,12.25V85.21H39V37.49H53.19V44h.2a15.6,15.6,0,0,1,14-7.71c15,0,17.78,9.88,17.78,22.73ZM22.25,31a8.6,8.6,0,1,1,8.6-8.6,8.58,8.58,0,0,1-8.6,8.6h0m7.41,54.25H14.83V37.49H29.66ZM92.59,0H7.38A7.29,7.29,0,0,0,0,7.21V92.78A7.31,7.31,0,0,0,7.38,100H92.59A7.32,7.32,0,0,0,100,92.78V7.21A7.31,7.31,0,0,0,92.59,0"/></svg>