<svg width="98" height="16" viewBox="0 0 98 16" fill="none" xmlns="http://www.w3.org/2000/svg">
<g clip-path="url(#clip0_125_176)">
<path d="M2.42076 0.0985107H0V15.8311H10.4875V13.6077H2.42076V0.0985107Z" fill="white"/>
<path d="M22.2562 5.66757C21.3437 4.82677 20.1631 4.4046 18.7405 4.4046C16.9565 4.4046 15.5004 4.97452 14.4166 6.10381C13.3738 7.20847 12.8487 8.58402 12.8487 10.2023C12.8487 11.8206 13.3775 13.1962 14.4203 14.3008C15.5004 15.4266 16.9193 16 18.6287 16C20.1222 16 21.3363 15.5814 22.2562 14.7511V15.8312H24.6769V4.57347H22.2562V5.66757ZM22.3455 10.2023C22.3455 11.2507 22.0364 12.1267 21.4294 12.8021C20.8 13.5163 19.9546 13.8611 18.8559 13.8611C17.7573 13.8611 16.9044 13.5128 16.2303 12.7986C15.586 12.1126 15.2732 11.2648 15.2732 10.2023C15.2732 9.13987 15.586 8.29202 16.2303 7.60953C16.9081 6.89185 17.7684 6.54356 18.8559 6.54356C19.9434 6.54356 20.8 6.88833 21.4331 7.60249C22.0513 8.28851 22.3493 9.13987 22.3493 10.2023H22.3455Z" fill="white"/>
<path d="M39.7639 4.57344H36.3487L31.4923 9.29464V0H29.0715V15.8311H31.4923V12.292L33.1682 10.7265L36.9372 15.8311H39.9091L34.8479 9.12577L39.7639 4.57344Z" fill="white"/>
<path d="M53.2158 4.57344H49.8007L44.9443 9.29464V0H42.5235V15.8311H44.9443V12.292L46.6202 10.7265L50.3891 15.8311H53.3611L48.2998 9.12577L53.2158 4.57344Z" fill="white"/>
<path d="M60.6383 4.4046C58.8693 4.4046 57.4094 4.97452 56.2958 6.10029C55.253 7.17681 54.7242 8.55588 54.7242 10.2023C54.7242 11.8488 55.2754 13.2173 56.3666 14.3079C57.4913 15.4301 58.9661 16 60.75 16C62.1503 16 63.3198 15.6799 64.2247 15.0431C65.1186 14.4134 65.7815 13.5796 66.1949 12.5664L66.3885 12.088H63.789L63.6847 12.278C63.0926 13.3439 62.1429 13.8611 60.7761 13.8611C59.7631 13.8611 58.9587 13.5761 58.3069 12.9886C57.7632 12.4961 57.4168 11.905 57.2567 11.1874H66.5561V10.2023C66.5561 8.55588 66.0273 7.17681 64.9808 6.10029C63.8709 4.97452 62.411 4.4046 60.642 4.4046H60.6383ZM57.2939 9.00619C57.469 8.34128 57.8004 7.79598 58.2995 7.35975C58.9363 6.81093 59.6998 6.54356 60.642 6.54356C61.5843 6.54356 62.3477 6.81093 62.9809 7.35623C63.4799 7.79598 63.8114 8.33776 63.9901 9.00619H57.2976H57.2939Z" fill="white"/>
<path d="M74.31 4.77751C73.5652 5.10469 72.9656 5.54093 72.5187 6.0827V4.57347H70.0979V15.8312H72.5187V10.8356C72.5187 9.70979 72.8538 8.73178 73.513 7.92967C74.2058 7.0959 75.0735 6.69132 76.1684 6.69132H76.742V4.4046H76.2578C75.5055 4.4046 74.85 4.53125 74.31 4.77751Z" fill="white"/>
<path d="M88.4659 5.66757C87.5535 4.82677 86.3729 4.4046 84.9502 4.4046C83.1663 4.4046 81.7101 4.97452 80.6264 6.10381C79.5836 7.20847 79.0585 8.58402 79.0585 10.2023C79.0585 11.8206 79.5873 13.1962 80.6301 14.3008C81.7101 15.4266 83.1291 16 84.8385 16C86.3319 16 87.546 15.5814 88.4659 14.7511V15.8312H90.8867V4.57347H88.4659V5.66757ZM88.5553 10.2023C88.5553 11.2507 88.2462 12.1267 87.6392 12.8021C87.0098 13.5163 86.1643 13.8611 85.0657 13.8611C83.967 13.8611 83.1142 13.5128 82.4401 12.7986C81.7958 12.1126 81.483 11.2648 81.483 10.2023C81.483 9.13987 81.7958 8.29202 82.4401 7.60953C83.1179 6.89185 83.9782 6.54356 85.0657 6.54356C86.1532 6.54356 87.0098 6.88833 87.6429 7.60249C88.2611 8.28851 88.559 9.13987 88.559 10.2023H88.5553Z" fill="white"/>
<path d="M97.6872 4.57343H95.2664V15.8311H97.6872V4.57343Z" fill="white"/>
<path d="M15.843 2.82145C16.7182 2.82145 17.3662 2.2269 17.3662 1.43534C17.3662 0.643787 16.7182 0.0175781 15.843 0.0175781C14.9678 0.0175781 14.3198 0.682486 14.3198 1.43886C14.3198 2.19524 14.9492 2.82497 15.843 2.82497V2.82145Z" fill="white"/>
<path d="M22.5839 2.82145C23.4591 2.82145 24.1071 2.2269 24.1071 1.43534C24.1071 0.643787 23.4591 0.0175781 22.5839 0.0175781C21.7087 0.0175781 21.0607 0.682486 21.0607 1.43886C21.0607 2.19524 21.6901 2.82497 22.5839 2.82497V2.82145Z" fill="white"/>
<path d="M96.4768 2.82149C97.352 2.82149 98 2.22694 98 1.43538C98 0.643826 97.352 0.0140991 96.4768 0.0140991C95.6016 0.0140991 94.9536 0.679007 94.9536 1.43538C94.9536 2.19176 95.5829 2.82149 96.4768 2.82149Z" fill="white"/>
</g>
<defs>
<clipPath id="clip0_125_176">
<rect width="98" height="16" fill="white"/>
</clipPath>
</defs>
</svg>
