<svg width="50" height="24" viewBox="0 0 50 24" fill="none" xmlns="http://www.w3.org/2000/svg">
<g clip-path="url(#clip0_125_190)">
<path d="M48.931 3.62509C48.2198 2.45808 47.2024 1.55021 45.9072 0.926629C44.6299 0.311704 43.0797 0 41.3 0H31.4437V8.8322C31.2628 8.76345 31.063 8.72457 30.8476 8.72457C29.928 8.72457 29.3674 9.31903 29.3674 10.0508C29.3674 10.714 29.7485 11.0571 30.1524 11.2171C30.4888 11.3542 30.7804 11.4915 30.7804 11.9489C30.7804 12.6806 30.2421 13.3896 28.2683 14.3728L26.1374 15.4475C23.827 16.6139 22.2345 18.1003 22.2345 19.4952C22.2345 20.6157 22.9523 21.1874 23.8944 21.1874C24.814 21.1874 25.3971 20.5928 25.3971 19.884C25.3971 19.2208 25.2177 18.9235 24.6121 18.6491C24.1635 18.4432 23.9392 18.3061 23.9392 17.8029C23.9392 17.1398 24.7916 16.6368 25.5766 16.6368C26.9448 16.6368 28.0888 17.4142 28.0888 19.4266C28.0888 21.6675 26.6981 23.5427 24.1411 23.5427C20.8887 23.5427 19.5653 21.3931 19.5653 18.8091C19.5653 15.7219 21.2701 14.1213 23.827 14.0299C24.0961 14.1441 24.4102 14.2128 24.6794 14.2128C25.0382 14.2128 25.3747 14.1213 25.3747 13.7555C25.3747 13.3667 25.0383 13.2981 24.6794 13.2981C24.4552 13.2981 24.186 13.3438 23.9392 13.4123C22.2345 13.0008 21.4718 11.7888 21.4718 10.2795C21.4718 8.28998 22.5934 6.82651 24.3205 6.82651C25.2177 6.82651 26.0701 7.28384 26.0701 8.17579C26.0701 8.3358 25.9579 8.49583 25.5541 8.54165C24.9261 8.61021 24.3205 8.93043 24.3205 9.89075C24.3205 10.5083 24.814 11.1486 25.8009 11.1486C26.8103 11.1486 27.4383 10.3024 27.4383 9.27339C27.4383 7.35258 25.8907 6.34626 23.6925 6.34626C20.4177 6.34626 18.6456 7.94703 18.6456 10.4168C18.6456 12.3147 19.9241 13.4582 22.7281 13.664L23.1408 13.7002C19.4161 13.7002 17.7229 15.491 16.8351 17.2724L12.2486 9.84623L20.7523 0H14.1458L5.56614 10.0887V0H0V23.7716H5.56614V16.7598L8.27636 13.6284L14.4422 23.7716H20.8491L20.8457 23.7662C21.5856 23.9188 22.4084 24 23.3111 24C28.6047 24 30.7804 21.4846 30.7804 18.9691C30.7804 17.2312 29.5468 15.9736 26.9897 15.9736C26.6309 15.9736 26.2495 16.0192 25.9131 16.1107L28.6047 14.7387C29.8196 14.1194 30.7866 13.416 31.4437 12.6478V23.7716H37.0096V15.6592H41.3C43.0802 15.6592 44.6302 15.3475 45.9071 14.7326C47.2027 14.1087 48.2201 13.2008 48.9311 12.0341C49.6403 10.8694 50 9.45485 50 7.8297C50 6.20455 49.6405 4.79025 48.931 3.62509ZM44.3659 7.8297C44.3659 8.8814 44.0712 9.64957 43.4648 10.1781C42.8464 10.7168 41.8778 10.99 40.5857 10.99H37.0097V4.66914H40.5857C41.879 4.66914 42.8489 4.93745 43.4676 5.46625C44.072 5.98385 44.3659 6.75698 44.3659 7.8297Z" fill="white"/>
</g>
<defs>
<clipPath id="clip0_125_190">
<rect width="50" height="24" fill="white"/>
</clipPath>
</defs>
</svg>
