<svg width="109" height="29" viewBox="0 0 109 29" fill="none" xmlns="http://www.w3.org/2000/svg">
<g clip-path="url(#clip0_125_142)">
<path d="M33.2635 0.445374C27.392 0.445374 20.0971 8.31533 16.1716 12.5353C15.6712 13.0724 15.2375 13.5437 14.8817 13.9164C14.4702 14.3439 14.0365 14.8041 13.5917 15.2865C10.8005 18.2679 7.33101 21.9837 4.31741 21.9837C3.3277 21.9837 2.60488 21.0191 2.17119 19.1229C1.75974 17.3471 1.75974 15.3084 1.75974 14.5411V14.4863C1.75974 13.7191 1.75974 11.6803 2.17119 9.90466C2.60488 8.00842 3.31658 7.04388 4.30628 7.04388C5.9076 7.04388 8.81 9.00584 12.2239 12.338L13.4249 11.0556C10.5114 8.20571 6.90845 5.30107 4.30628 5.30107C2.98297 5.30107 1.24822 6.03544 0.447551 9.52106C0.0027403 11.483 0.00274028 13.6643 0.00274028 14.4863V14.5411C-0.00838 15.3632 -0.00837997 17.5444 0.447551 19.5175C1.24822 23.003 2.9941 23.7374 4.31741 23.7374C8.1094 23.7374 11.8681 19.7147 14.8928 16.4703C15.3376 15.9989 15.7602 15.5386 16.1605 15.1221C16.5275 14.7384 16.9722 14.2671 17.4839 13.7191C20.9533 9.9814 28.1815 2.18816 33.2746 2.18816C34.509 2.18816 36.2548 2.60468 37.1778 6.23277C37.8339 8.78665 37.8339 12.0531 37.8339 14.4425V14.6178C37.8339 17.0073 37.8339 20.2628 37.1778 22.8166C36.2548 26.4338 34.509 26.8612 33.2746 26.8612C30.3277 26.8612 24.9677 23.1016 18.796 16.7443L17.595 18.0268C21.8875 22.433 28.7042 28.604 33.2746 28.604C36.0881 28.604 37.9785 26.8064 38.8904 23.2442C39.602 20.4711 39.602 17.0841 39.602 14.6069V14.4315C39.602 11.9543 39.602 8.56745 38.8904 5.80527C37.9674 2.24296 36.0769 0.445374 33.2635 0.445374Z" fill="white"/>
<mask id="mask0_125_142" style="mask-type:luminance" maskUnits="userSpaceOnUse" x="46" y="2" width="63" height="25">
<path d="M108.999 2.29736H46.0129V26.7509H108.999V2.29736Z" fill="white"/>
</mask>
<g mask="url(#mask0_125_142)">
<path d="M74.7747 4.49547V6.96555H77.5824V8.41801H74.7747V13.9407C74.7747 14.3346 74.8751 14.6382 75.0849 14.868C75.2943 15.0977 75.604 15.2044 76.0318 15.2044C76.3584 15.2127 76.6854 15.1634 76.996 15.0649C77.2304 14.9828 77.4566 14.8762 77.6664 14.7531V16.0169C77.4148 16.2138 77.1382 16.378 76.8443 16.501C76.5596 16.6159 76.1658 16.6816 75.6799 16.6816C74.8587 16.6816 74.2383 16.4436 73.8191 15.9512C73.4004 15.4671 73.191 14.8188 73.191 14.0146V8.41801H71.3471V7.96668C71.9757 7.68765 72.5034 7.23632 72.9226 6.59623C73.3668 5.91517 73.7188 5.17657 73.9785 4.41342C74.0122 4.31495 74.1043 4.2493 74.2133 4.2493H74.5231C74.6575 4.2493 74.7747 4.35598 74.7747 4.49547Z" fill="white"/>
<path d="M86.5992 3.30584V16.3946H85.0155V3.30584C85.0155 3.03504 85.2412 2.82169 85.5183 2.81348H86.0964C86.373 2.81348 86.5992 3.03504 86.5992 3.30584Z" fill="white"/>
<path d="M82.398 7.45173V16.3964H80.822V8.42001H79.2969V6.96756H81.8948C82.1714 6.96756 82.398 7.18091 82.398 7.45173Z" fill="white"/>
<path d="M82.3481 2.82211C81.8454 2.31333 81.0242 2.30512 80.5038 2.79749C80.496 2.80569 80.4874 2.8139 80.4792 2.82211C79.9765 3.31447 79.9765 4.11046 80.4792 4.60283C80.9652 5.11162 81.7695 5.13625 82.2891 4.66029C82.3059 4.64387 82.3313 4.61924 82.3481 4.60283C82.8509 4.11046 82.8509 3.31447 82.3481 2.82211Z" fill="white"/>
<path d="M97.7964 3.30593V16.3947H96.2209V14.7945C95.8607 15.3197 95.3997 15.771 94.8634 16.1157C94.2852 16.4931 93.6062 16.6901 92.9104 16.6819C92.1147 16.6901 91.3349 16.4767 90.6564 16.0665C89.9693 15.6479 89.4075 15.0571 89.0305 14.3596C88.6286 13.6292 88.4274 12.7922 88.4274 11.8321C88.4274 10.7899 88.6286 9.88724 89.0305 9.13226C89.4075 8.41011 89.9861 7.8029 90.6977 7.38432C91.4185 6.97408 92.2319 6.76073 93.0699 6.76894C93.6566 6.7771 94.2262 6.9084 94.7548 7.15459C95.3157 7.40894 95.8185 7.77006 96.2295 8.22139V3.29773C96.2295 3.02692 96.4557 2.80536 96.7323 2.80536H97.3104C97.5784 2.82177 97.7964 3.03513 97.7964 3.30593ZM93.3546 8.31986C92.6588 8.31986 92.0725 8.484 91.5861 8.82044C91.1001 9.14868 90.7146 9.59184 90.4552 10.117C90.195 10.6504 90.0528 11.2412 90.061 11.8321C90.0528 12.4065 90.1873 12.981 90.4466 13.4979C90.69 13.9903 91.0665 14.4088 91.5361 14.7124C92.0221 15.016 92.5839 15.1802 93.1616 15.172C93.7234 15.1802 94.2766 15.0243 94.738 14.7206C95.2153 14.4088 95.5928 13.9739 95.8353 13.4651C96.1123 12.8989 96.2463 12.2834 96.2209 11.6598L96.2127 10.6012C96.2127 10.0595 95.9693 9.53442 95.5591 9.1733C95.3661 9.00095 95.1481 8.85328 94.9301 8.72198C94.4442 8.45112 93.8996 8.31165 93.3546 8.31986Z" fill="white"/>
<path d="M104.265 6.77648C104.852 6.78469 105.422 6.91599 105.95 7.16218C106.512 7.41653 107.015 7.77765 107.425 8.22894V7.45758C107.425 7.18677 107.652 6.96525 107.92 6.96525H108.498C108.775 6.96525 109 7.18677 109 7.45758V16.4022H107.425V14.7938C107.065 15.319 106.604 15.7704 106.067 16.1151C105.489 16.4925 104.81 16.6894 104.114 16.6812C103.319 16.6894 102.539 16.4761 101.86 16.0658C101.173 15.6473 100.611 15.0565 100.234 14.3589C99.8317 13.6286 99.6309 12.7915 99.6309 11.8315C99.6309 10.7893 99.8317 9.88662 100.234 9.13164C100.611 8.40949 101.19 7.80228 101.902 7.3837C102.615 6.97341 103.436 6.76827 104.265 6.77648ZM104.55 8.2864C103.855 8.2864 103.268 8.45871 102.782 8.79519C102.296 9.13164 101.911 9.58292 101.659 10.1082C101.399 10.6497 101.257 11.2324 101.265 11.8315C101.257 12.4059 101.391 12.9803 101.651 13.4973C101.894 13.9897 102.271 14.4082 102.74 14.7118C103.226 15.0154 103.788 15.1796 104.366 15.1631C104.928 15.1714 105.481 15.0154 105.942 14.7118C106.419 14.4 106.797 13.965 107.039 13.4563C107.316 12.89 107.45 12.2746 107.425 11.6509L107.417 10.5841C107.408 10.0425 107.182 9.53371 106.771 9.16448C106.57 8.98392 106.352 8.82803 106.126 8.68852C105.648 8.40949 105.103 8.26998 104.55 8.2864Z" fill="white"/>
<path d="M58.858 16.3275V3.41925C58.858 2.9433 58.4642 2.55761 57.9783 2.55761C57.7185 2.55761 57.4669 2.6725 57.2993 2.86124L52.472 8.4742L47.6446 2.86124C47.3349 2.49196 46.7731 2.45093 46.4043 2.75456C46.2036 2.91867 46.0859 3.16486 46.0859 3.41925V16.3275H47.6446V5.24102L51.7935 10.0662C52.1032 10.4273 52.665 10.4765 53.0338 10.1729C53.0756 10.1401 53.1092 10.1073 53.1428 10.0662L57.2993 5.24102V16.3275H58.858Z" fill="white"/>
<path d="M65.3194 6.77648C65.9057 6.78469 66.4757 6.91599 67.0039 7.16218C67.5653 7.41653 68.068 7.77765 68.4786 8.22894V7.45758C68.4786 7.18677 68.7052 6.96525 68.9818 6.96525H69.56C69.8365 6.96525 70.0627 7.18677 70.0627 7.45758V16.4022H68.4786V14.7938C68.1184 15.319 67.6575 15.7704 67.1211 16.1151C66.5429 16.4925 65.864 16.6894 65.1682 16.6812C64.3725 16.6894 63.5927 16.4761 62.9141 16.0658C62.227 15.6473 61.6652 15.0565 61.2882 14.3589C60.8858 13.6286 60.6846 12.7915 60.6846 11.8315C60.6846 10.7893 60.8858 9.88662 61.2882 9.13164C61.6652 8.40949 62.2433 7.80228 62.9559 7.3837C63.6681 6.97341 64.4896 6.76827 65.3194 6.77648ZM65.6128 8.2864C64.917 8.2864 64.3302 8.45871 63.8443 8.79519C63.3583 9.13164 62.9727 9.58292 62.7211 10.1082C62.4613 10.6415 62.3192 11.2324 62.3274 11.8315C62.3192 12.4059 62.4532 12.9803 62.7129 13.4973C62.9559 13.9897 63.3329 14.4082 63.8025 14.7118C64.2884 15.0236 64.8498 15.1796 65.4279 15.1714C65.9898 15.1796 66.5429 15.0236 67.0039 14.72C67.4731 14.4082 67.8587 13.9733 68.1016 13.4645C68.3782 12.8982 68.5122 12.2828 68.4872 11.6591L68.4786 10.5923C68.4786 10.0671 68.261 9.56655 67.8755 9.21369C67.6656 9.02496 67.4395 8.85266 67.1883 8.69673C66.7105 8.4177 66.1655 8.26998 65.6128 8.2864Z" fill="white"/>
<path d="M74.7747 4.49547V6.96555H77.5824V8.41801H74.7747V13.9407C74.7747 14.3346 74.8751 14.6382 75.0849 14.868C75.2943 15.0977 75.604 15.2044 76.0318 15.2044C76.3584 15.2127 76.6854 15.1634 76.996 15.0649C77.2304 14.9828 77.4566 14.8762 77.6664 14.7531V16.0169C77.4148 16.2138 77.1382 16.378 76.8443 16.501C76.5596 16.6159 76.1658 16.6816 75.6799 16.6816C74.8587 16.6816 74.2383 16.4436 73.8191 15.9512C73.4004 15.4671 73.191 14.8188 73.191 14.0146V8.41801H71.3471V7.96668C71.9757 7.68765 72.5034 7.23632 72.9226 6.59623C73.3668 5.91517 73.7188 5.17657 73.9785 4.41342C74.0122 4.31495 74.1043 4.2493 74.2133 4.2493H74.5231C74.6575 4.2493 74.7747 4.35598 74.7747 4.49547Z" fill="white"/>
<path d="M86.5992 3.30584V16.3946H85.0155V3.30584C85.0155 3.03504 85.2412 2.82169 85.5183 2.81348H86.0964C86.373 2.81348 86.5992 3.03504 86.5992 3.30584Z" fill="white"/>
<path d="M82.398 7.45173V16.3964H80.822V8.42001H79.2969V6.96756H81.8952C82.1714 6.96756 82.398 7.18091 82.398 7.45173Z" fill="white"/>
<path d="M82.3481 2.82211C81.8454 2.31333 81.0242 2.30512 80.5038 2.79749C80.496 2.80569 80.4874 2.8139 80.4792 2.82211C79.9765 3.31447 79.9765 4.11046 80.4792 4.60283C80.9652 5.11162 81.7695 5.13625 82.2891 4.66029C82.3059 4.64387 82.3313 4.61924 82.3481 4.60283C82.8509 4.11046 82.8509 3.31447 82.3481 2.82211Z" fill="white"/>
<path d="M97.7964 3.30593V16.3947H96.2209V14.7945C95.8607 15.3197 95.3997 15.771 94.8634 16.1157C94.2852 16.4931 93.6062 16.6901 92.9104 16.6819C92.1147 16.6901 91.3349 16.4767 90.6564 16.0665C89.9693 15.6479 89.4075 15.0571 89.0305 14.3596C88.6286 13.6292 88.4274 12.7922 88.4274 11.8321C88.4274 10.7899 88.6286 9.88724 89.0305 9.13226C89.4075 8.41011 89.9861 7.8029 90.6977 7.38432C91.4185 6.97408 92.2319 6.76073 93.0699 6.76894C93.6566 6.7771 94.2262 6.9084 94.7548 7.15459C95.3157 7.40894 95.8185 7.77006 96.2295 8.22139V3.29773C96.2295 3.02692 96.4557 2.80536 96.7323 2.80536H97.3104C97.5784 2.82177 97.7964 3.03513 97.7964 3.30593ZM93.3546 8.31986C92.6588 8.31986 92.0725 8.484 91.5861 8.82044C91.1001 9.14868 90.7146 9.59184 90.4552 10.117C90.195 10.6504 90.0528 11.2412 90.061 11.8321C90.0528 12.4065 90.1873 12.981 90.4466 13.4979C90.69 13.9903 91.0665 14.4088 91.5361 14.7124C92.0221 15.016 92.5839 15.1802 93.1616 15.172C93.7234 15.1802 94.2766 15.0243 94.738 14.7206C95.2153 14.4088 95.5928 13.9739 95.8353 13.4651C96.1123 12.8989 96.2463 12.2834 96.2209 11.6598L96.2127 10.6012C96.2127 10.0595 95.9693 9.53442 95.5591 9.1733C95.3661 9.00095 95.1481 8.85328 94.9301 8.72198C94.4442 8.45112 93.8996 8.31165 93.3546 8.31986Z" fill="white"/>
<path d="M104.266 6.77648C104.852 6.78469 105.422 6.91599 105.95 7.16218C106.512 7.41653 107.015 7.77765 107.425 8.22894V7.45758C107.425 7.18677 107.652 6.96525 107.92 6.96525H108.498C108.775 6.96525 109.001 7.18677 109.001 7.45758V16.4022H107.425V14.7938C107.065 15.319 106.604 15.7704 106.068 16.1151C105.489 16.4925 104.811 16.6894 104.115 16.6812C103.319 16.6894 102.539 16.4761 101.861 16.0658C101.174 15.6473 100.612 15.0565 100.235 14.3589C99.8321 13.6286 99.6309 12.7915 99.6309 11.8315C99.6309 10.7893 99.8321 9.88662 100.235 9.13164C100.612 8.40949 101.191 7.80228 101.902 7.3837C102.615 6.97341 103.436 6.76827 104.266 6.77648ZM104.55 8.2864C103.855 8.2864 103.269 8.45871 102.783 8.79519C102.296 9.13164 101.911 9.58292 101.66 10.1082C101.399 10.6497 101.257 11.2324 101.265 11.8315C101.257 12.4059 101.392 12.9803 101.651 13.4973C101.894 13.9897 102.271 14.4082 102.741 14.7118C103.227 15.0154 103.788 15.1796 104.366 15.1631C104.928 15.1714 105.481 15.0154 105.942 14.7118C106.42 14.4 106.797 13.965 107.04 13.4563C107.317 12.89 107.451 12.2746 107.425 11.6509L107.417 10.5841C107.409 10.0425 107.182 9.53371 106.772 9.16448C106.571 8.98392 106.353 8.82803 106.127 8.68852C105.649 8.40949 105.104 8.26998 104.55 8.2864Z" fill="white"/>
<path d="M46.0435 26.6206V20.7532H50.3345V21.3277H46.7057V23.4202H49.0855V23.9783H46.7057V26.6206H46.0435Z" fill="white"/>
<path d="M49.8827 24.5107C49.8827 24.2153 49.9327 23.9281 50.0503 23.6573C50.1593 23.3947 50.3182 23.1649 50.5194 22.9598C50.7206 22.7629 50.955 22.6069 51.2152 22.5002C51.4832 22.3854 51.7766 22.3362 52.07 22.3362C52.6481 22.3362 53.2095 22.5577 53.6205 22.968C53.8212 23.1649 53.9806 23.403 54.0896 23.6655C54.2068 23.9363 54.2572 24.2235 54.2572 24.519C54.2572 24.8144 54.2068 25.1098 54.0896 25.3806C53.9806 25.6432 53.8212 25.8729 53.6205 26.0781C53.4193 26.275 53.1845 26.431 52.9247 26.5377C52.6567 26.6526 52.3633 26.7018 52.07 26.7018C51.7766 26.7018 51.4832 26.6526 51.2152 26.5377C50.955 26.431 50.7206 26.275 50.5194 26.0781C50.3182 25.8812 50.1593 25.6432 50.0503 25.3806C49.9413 25.1098 49.8827 24.8144 49.8827 24.5107ZM52.0781 26.152C52.288 26.152 52.4973 26.1109 52.6899 26.0289C52.8743 25.9468 53.0505 25.8319 53.1845 25.6842C53.3271 25.5365 53.4361 25.356 53.5115 25.1672C53.6704 24.7569 53.6791 24.2974 53.5197 23.8789C53.4443 23.6901 53.3353 23.5096 53.1931 23.3619C53.0505 23.2141 52.8829 23.0993 52.6985 23.0172C52.3048 22.8531 51.8688 22.8531 51.475 23.0172C51.2906 23.0993 51.123 23.2141 50.9804 23.3619C50.8378 23.5096 50.7206 23.6901 50.6452 23.8789C50.5612 24.084 50.5194 24.2974 50.5194 24.519C50.5194 24.7405 50.5612 24.9539 50.6366 25.159C50.712 25.3478 50.821 25.5283 50.9636 25.676C51.1062 25.8237 51.2738 25.9468 51.4664 26.0207C51.6594 26.1027 51.8688 26.1438 52.0781 26.152Z" fill="white"/>
<path d="M54.9519 24.5107C54.9519 24.2153 55.0023 23.9281 55.1195 23.6573C55.2285 23.3946 55.3879 23.1649 55.5891 22.9598C56.4352 22.1228 57.8181 22.1145 58.6729 22.9434C58.6815 22.9516 58.6897 22.9598 58.6897 22.9598C58.8909 23.1567 59.0503 23.3946 59.1589 23.6573C59.2765 23.9281 59.3269 24.2153 59.3269 24.5107C59.3269 24.8061 59.2765 25.1015 59.1589 25.3724C59.0503 25.6349 58.8909 25.8647 58.6897 26.0699C58.4885 26.2668 58.2541 26.4227 57.9944 26.5294C57.726 26.6443 57.4326 26.6935 57.1392 26.6935C56.5528 26.6935 55.9997 26.4719 55.5891 26.0699C55.3879 25.8729 55.2285 25.6349 55.1195 25.3724C55.0105 25.1015 54.9519 24.8061 54.9519 24.5107ZM57.1392 26.152C57.5584 26.152 57.9608 25.9796 58.2455 25.676C58.3881 25.5282 58.4971 25.3477 58.5725 25.159C58.7315 24.7487 58.7315 24.2891 58.5725 23.8789C58.4971 23.6901 58.3881 23.5095 58.2455 23.3619C58.1029 23.2141 57.9353 23.0992 57.7509 23.0172C57.3572 22.8531 56.9216 22.8531 56.5274 23.0172C56.343 23.0992 56.1673 23.2141 56.0333 23.3619C55.8907 23.5095 55.7735 23.6901 55.6976 23.8789C55.6141 24.084 55.5723 24.2973 55.5723 24.5189C55.5723 24.7405 55.6141 24.9539 55.6895 25.159C55.7649 25.3477 55.8739 25.5282 56.0165 25.676C56.1586 25.8237 56.3262 25.9468 56.5192 26.0207C56.7204 26.1109 56.9298 26.152 57.1392 26.152Z" fill="white"/>
<path d="M63.5577 26.6196V26.1765C63.3733 26.3407 63.164 26.4719 62.9291 26.554C62.6862 26.6443 62.4346 26.6853 62.1748 26.6853C61.8814 26.6853 61.5966 26.636 61.3282 26.5212C60.8086 26.2996 60.3899 25.8893 60.1887 25.3723C60.0797 25.1015 60.0211 24.8061 60.0211 24.5189C60.0211 24.2235 60.0797 23.9363 60.1887 23.6655C60.5153 22.8695 61.3114 22.3443 62.1834 22.3524C62.4264 22.3524 62.6694 22.3935 62.9042 22.4755C63.1385 22.5577 63.3565 22.6726 63.5491 22.8284V20.7523L64.1863 20.6128V26.6196H63.5577ZM60.6411 24.5025C60.6411 24.7241 60.6828 24.9456 60.7669 25.1508C60.8423 25.3395 60.9594 25.52 61.102 25.6677C61.2446 25.8155 61.4122 25.9304 61.6048 26.0124C61.7978 26.0945 62.0154 26.1355 62.2334 26.1355C62.4931 26.1355 62.7448 26.0863 62.9796 25.9796C63.2057 25.8811 63.3983 25.7334 63.5491 25.5446V23.4685C63.3983 23.288 63.2057 23.1403 62.9796 23.0418C62.7448 22.9351 62.4931 22.8859 62.2334 22.8859C61.806 22.8777 61.3954 23.0418 61.102 23.3454C60.8005 23.6573 60.6329 24.0758 60.6411 24.5025Z" fill="white"/>
<path d="M64.8733 21.3265V20.7521H69.86V21.3265H67.6978V26.6112H67.0356V21.3265H64.8733Z" fill="white"/>
<path d="M73.1531 26.1762C72.9269 26.3403 72.6753 26.4717 72.4074 26.5701C72.1308 26.6604 71.8456 26.7014 71.5522 26.7014C71.2506 26.7014 70.9572 26.6522 70.6806 26.5373C70.4209 26.4306 70.1779 26.2747 69.9767 26.0777C69.7755 25.8808 69.6165 25.6429 69.5075 25.3885C69.2813 24.8386 69.2813 24.2314 69.5075 23.6816C69.6165 23.4272 69.7673 23.1974 69.9599 22.9923C70.1529 22.7953 70.3791 22.6394 70.6307 22.5327C70.8905 22.426 71.1752 22.3686 71.46 22.3686C71.7366 22.3686 72.005 22.4178 72.2566 22.5327C72.4996 22.6394 72.7171 22.7953 72.9015 22.9923C73.0859 23.1974 73.2285 23.4272 73.3293 23.6816C73.4379 23.9523 73.4883 24.2396 73.4883 24.5268V24.7237H69.9685C70.0021 25.1176 70.1947 25.4869 70.4881 25.7577C70.7815 26.0285 71.1752 26.1762 71.5776 26.168C71.7956 26.168 72.0218 26.1352 72.2312 26.0695C72.4242 26.0121 72.6086 25.9136 72.7594 25.7823L73.1531 26.1762ZM71.4436 22.8937C71.083 22.8856 70.7392 23.025 70.4794 23.2631C70.2033 23.5093 70.0357 23.8457 69.9853 24.2067H72.8516C72.8011 23.8539 72.6336 23.5257 72.3651 23.2713C72.1308 23.0333 71.7956 22.8937 71.4436 22.8937Z" fill="white"/>
<path d="M76.374 26.1262C76.6007 26.1262 76.8268 26.0852 77.0367 25.9949C77.2542 25.8965 77.4554 25.7652 77.623 25.6011L78.0167 26.0196C77.7906 26.2247 77.5308 26.3971 77.2456 26.5119C76.9608 26.6268 76.6592 26.6842 76.3572 26.6842C76.0643 26.6842 75.7709 26.635 75.5025 26.5202C75.2427 26.4135 75.0083 26.2575 74.8072 26.0606C74.3961 25.6421 74.17 25.084 74.1786 24.5096C74.1786 24.2142 74.2285 23.927 74.3462 23.6562C74.4552 23.4019 74.6141 23.1638 74.8072 22.9668C75.0083 22.7699 75.2427 22.614 75.5025 22.4991C75.7709 22.3843 76.0643 22.3268 76.3572 22.3268C76.6679 22.3268 76.9776 22.3843 77.2624 22.4991C77.5471 22.614 77.8155 22.7781 78.0335 22.9833L77.6312 23.4346C77.4636 23.2623 77.2624 23.131 77.0444 23.0325C76.8355 22.9423 76.6007 22.893 76.3658 22.893C76.156 22.893 75.9471 22.9341 75.7541 23.0161C75.5615 23.0982 75.3935 23.2131 75.2513 23.3608C75.1087 23.5085 74.9997 23.6808 74.9243 23.8696C74.7649 24.2799 74.7649 24.7312 74.9243 25.1415C74.9997 25.3303 75.1169 25.5026 75.2595 25.6503C75.4021 25.798 75.5697 25.9129 75.7627 25.9867C75.9471 26.0934 76.1651 26.1344 76.374 26.1262Z" fill="white"/>
<path d="M78.761 26.6196V20.7523L79.3987 20.6128V22.9187C79.5577 22.73 79.7584 22.5823 79.985 22.4837C80.228 22.3853 80.4878 22.3361 80.7476 22.3361C81.2335 22.3361 81.6277 22.4837 81.9375 22.7874C82.2477 23.091 82.3985 23.4767 82.3985 23.9609V26.6196H81.7699V24.084C81.7699 23.7147 81.6614 23.4192 81.4434 23.2059C81.2254 22.9844 80.932 22.8777 80.5718 22.8777C80.3284 22.8777 80.0936 22.9351 79.8847 23.0418C79.6835 23.1567 79.5072 23.3208 79.3901 23.5177V26.6114L78.761 26.6196Z" fill="white"/>
</g>
</g>
<defs>
<clipPath id="clip0_125_142">
<rect width="109" height="29" fill="white"/>
</clipPath>
</defs>
</svg>
