<svg width="71" height="21" viewBox="0 0 71 21" fill="none" xmlns="http://www.w3.org/2000/svg">
<path fill-rule="evenodd" clip-rule="evenodd" d="M63.6947 9.794C65.2246 9.794 66.5984 10.8025 67.0772 12.2269H60.3226C60.8014 10.7921 62.1648 9.794 63.6947 9.794ZM70.4701 13.4538C70.4701 11.6759 69.7728 10.0019 68.5238 8.7335C67.2645 7.46507 65.5993 6.75807 63.83 6.75807C63.7988 6.75807 63.7675 6.75807 63.7467 6.75807C61.915 6.77886 60.1769 7.50665 58.876 8.80628C57.575 10.1059 56.8465 11.8318 56.8257 13.6721C56.8048 15.554 57.523 17.3214 58.8551 18.6731C60.1873 20.0247 61.9566 20.7629 63.83 20.7629H63.8404C66.307 20.7629 68.6175 19.4424 69.8768 17.3318L70.0329 17.0615L67.2645 15.6995L67.1292 15.9282C66.4319 17.0719 65.235 17.7477 63.9028 17.7477C62.196 17.7477 60.7285 16.6144 60.2706 14.9925H70.4701V13.4538ZM53.1205 4.36675C51.9133 4.36675 50.9349 3.38943 50.9349 2.18338C50.9349 0.977321 51.9133 0 53.1205 0C54.3278 0 55.3061 0.977321 55.3061 2.18338C55.3166 3.38943 54.3278 4.36675 53.1205 4.36675ZM51.4449 20.4821H54.7962V7.03879H51.4449V20.4821ZM45.0338 0.291116H48.3851V20.4925H45.0338V0.291116ZM38.6227 20.4821H41.974V0.291116H38.6227V20.4821ZM29.8075 17.4462C27.778 17.4462 26.1231 15.7931 26.1231 13.7657C26.1231 11.7382 27.778 10.0851 29.8075 10.0851C31.8369 10.0851 33.4918 11.7382 33.4918 13.7657C33.4918 15.7931 31.8369 17.4462 29.8075 17.4462ZM29.8075 6.74767C25.9358 6.74767 22.7927 9.89797 22.7927 13.7553C22.7927 17.6126 25.9462 20.7629 29.8075 20.7629C33.6687 20.7629 36.8222 17.6126 36.8222 13.7553C36.8222 9.89797 33.6791 6.74767 29.8075 6.74767ZM15.497 6.76846C15.3096 6.75807 15.1431 6.74767 14.9558 6.74767C13.2697 6.74767 11.667 7.43387 10.5117 8.66072C9.35646 7.44427 7.76409 6.74767 6.08846 6.74767C2.73721 6.74767 0 9.47169 0 12.8195V20.4821H3.2784V12.9131C3.2784 11.5199 4.42324 10.2411 5.76583 10.1059C5.85949 10.0955 5.95316 10.0955 6.04683 10.0955C7.56635 10.0955 8.80485 11.3328 8.80485 12.8507V20.4925H12.1561V12.9131C12.1561 11.5303 13.2905 10.2515 14.6435 10.1163C14.7372 10.1059 14.8309 10.1059 14.9245 10.1059C16.4441 10.1059 17.6826 11.3328 17.693 12.8403V20.5029H21.0442V12.9339C21.0442 11.3951 20.4718 9.91876 19.4519 8.77509C18.4319 7.61062 17.0269 6.90363 15.497 6.76846Z" fill="white"/>
</svg>
