<svg width="99" height="24" viewBox="0 0 99 24" fill="none" xmlns="http://www.w3.org/2000/svg">
<g clip-path="url(#clip0_125_192)">
<path d="M38.3788 0H34.1051V24H38.3788V0Z" fill="white"/>
<path d="M64.027 1.40511C62.1285 0.468441 59.9606 0 57.5236 0C55.0639 0 52.8794 0.487465 50.9701 1.46297C49.0609 2.43818 47.5668 3.84304 46.4886 5.67802C45.4103 7.51275 44.8712 9.63682 44.8712 12.0502C44.8712 13.9898 45.2167 15.731 45.9077 17.2735C46.5982 18.8166 47.5305 20.0701 48.704 21.0342C49.8776 21.9986 51.206 22.7312 52.6888 23.2327C54.1709 23.7342 55.7376 23.9847 57.389 23.9847C59.8933 23.9847 62.1118 23.4724 64.0437 22.4475C65.975 21.4226 67.4744 19.982 68.5419 18.1248C69.6088 16.2682 70.142 14.1386 70.142 11.736C70.142 9.36705 69.5975 7.28713 68.508 5.49597C67.4184 3.70534 65.9249 2.34176 64.027 1.40511ZM65.0713 15.7033C64.5881 16.7835 63.9478 17.6374 63.1507 18.2654C62.353 18.8938 61.4857 19.3675 60.548 19.6869C59.6098 20.0069 58.6411 20.1665 57.6415 20.1665C55.2378 20.1665 53.2333 19.3953 51.6272 17.8522C50.0212 16.3095 49.2182 14.2652 49.2182 11.7197C49.2182 10.6509 49.3754 9.67279 49.69 8.78553C50.0039 7.89854 50.4251 7.15188 50.9535 6.54575C51.4813 5.93992 52.096 5.42995 52.7978 5.01669C53.4996 4.60345 54.2329 4.30069 54.9966 4.10751C55.7603 3.91493 56.5467 3.81848 57.355 3.81848C58.164 3.81848 58.9581 3.9149 59.7391 4.10751C60.5195 4.30069 61.2778 4.61164 62.0135 5.04156C62.7492 5.47143 63.3949 5.99484 63.9508 6.61179C64.5072 7.22931 64.9534 8.00318 65.2905 8.93427C65.6271 9.86564 65.7957 10.8932 65.7957 12.0172C65.7957 13.3948 65.5538 14.6234 65.0713 15.7033Z" fill="white"/>
<path d="M72.3546 24H77.9929L84.6163 15.6716L81.8688 12.3719L72.3546 24Z" fill="white"/>
<path d="M88.9055 11.4341L97.9999 0H92.6343L85.9413 8.47859L79.0116 0H73.482L73.4857 0.00473015L93.663 24H99L88.9055 11.4341Z" fill="white"/>
<path d="M14.1664 17.091L22.3762 24H28.0671L22.9763 19.649C24.5159 17.576 25.2855 15.0343 25.2855 12.0242C25.2855 8.37455 24.1392 5.45799 21.8468 3.27477C19.5543 1.09157 16.4918 0 12.6597 0C10.1873 0 7.99617 0.487751 6.0858 1.46385C4.17483 2.43964 2.68289 3.84527 1.61 5.68135C0.536473 7.51714 0 9.65353 0 12.0903C0 13.9427 0.32309 15.6244 0.969219 17.1348C1.61535 18.6457 2.50883 19.8969 3.64969 20.8894C4.78995 21.8819 6.13347 22.6483 7.67846 23.1884C9.22342 23.7288 10.8954 23.9987 12.6937 23.9987C14.9615 23.9987 16.9989 23.5671 18.813 22.7174L15.4229 19.8833C14.6787 20.0726 13.896 20.1783 13.0644 20.1783C11.8956 20.1783 10.7887 19.9964 9.74376 19.6323C8.69828 19.2686 7.77379 18.7448 6.97029 18.0612C6.16681 17.3775 5.52903 16.4982 5.05753 15.423C4.58546 14.348 4.34944 13.138 4.34944 11.7926C4.34944 10.7011 4.5092 9.70037 4.82985 8.79064C5.14993 7.88095 5.57433 7.12594 6.10244 6.5247C6.63054 5.9241 7.24569 5.41675 7.94843 5.00328C8.65059 4.58978 9.37537 4.28949 10.1228 4.10177C10.8703 3.9143 11.6314 3.82074 12.4069 3.82074C13.1484 3.82074 13.8792 3.89502 14.5981 4.04384C15.3175 4.19268 16.065 4.47134 16.8404 4.87899C17.6159 5.28722 18.2924 5.79981 18.8718 6.41738C19.45 7.03495 19.928 7.85608 20.3041 8.88158C20.6809 9.90709 20.8692 11.0759 20.8692 12.388C20.8692 14.1413 20.5205 15.6025 19.8237 16.771L18.4202 15.612H12.3933L14.1664 17.091Z" fill="white"/>
</g>
<defs>
<clipPath id="clip0_125_192">
<rect width="99" height="24" fill="white"/>
</clipPath>
</defs>
</svg>
