<svg width="95" height="37" viewBox="0 0 95 37" fill="none" xmlns="http://www.w3.org/2000/svg">
<path d="M12.3692 0.0272522L0.657227 6.48496L12.995 13.3141V36.0875L16.4817 34.1445V29.6012V25.058L24.7069 20.5147V6.85642L12.3692 0.0272522Z" fill="white"/>
<path d="M0.0308228 7.54356V20.5161L8.256 25.0594V29.6026V34.1459L11.7428 36.0889V14.0298L0.0308228 7.54356Z" fill="white"/>
<path d="M63.5967 6.83012V8.91602V20.4885H66.0702L66.0404 18.6883V6.83012H63.5967Z" fill="white"/>
<path d="M66.0704 1.51492H63.5969V3.74369H66.0704V1.51492Z" fill="white"/>
<path d="M92.9513 19.63C92.2063 20.2014 91.1334 20.4872 89.7328 20.4872H85.4116V18.4299H90.001C90.5076 18.4299 90.9248 18.3156 91.193 18.1155C91.4612 17.9155 91.6102 17.6012 91.6102 17.2012V15.7439C91.6102 14.9153 91.193 14.5152 90.3586 14.5152H89.2857C87.9447 14.5152 86.9314 14.2295 86.2758 13.6866C85.6202 13.1437 85.2924 12.2579 85.2924 11.0578V10.2577C85.2924 9.02903 85.65 8.17182 86.395 7.62891C87.14 7.08601 88.2129 6.82884 89.6433 6.82884H93.5175V8.88616H89.3453C88.8685 8.88616 88.4811 9.00046 88.1831 9.20048C87.8851 9.4005 87.7361 9.71481 87.7361 10.1148V11.0864C87.7361 11.515 87.8553 11.8007 88.1235 12.0007C88.3917 12.2007 88.7195 12.315 89.1069 12.315H90.0904C91.3718 12.315 92.3553 12.6008 93.0407 13.2008C93.7261 13.8009 94.054 14.6581 94.054 15.8296V17.0583C94.054 18.2298 93.6963 19.0871 92.9513 19.63Z" fill="white"/>
<path d="M40.6496 6.82884V7.48604C40.0536 7.05743 39.3979 6.82884 38.4443 6.82884H37.4012C35.7026 6.82884 34.4509 7.17173 33.6761 7.8575C32.9012 8.54328 32.484 9.65766 32.484 11.2007V11.6007V16.0582C32.484 17.6012 32.8714 18.7727 33.6761 19.4585C34.4509 20.1443 35.6728 20.4872 37.3416 20.4872H38.5039C39.3383 20.4872 40.0536 20.2586 40.6198 19.8871V25.0876H43.0337V11.6007V11.0578V6.82884H40.6496ZM40.6794 16.6011C40.6794 17.1726 40.5006 17.6012 40.143 17.9155C39.7853 18.2298 39.2489 18.3727 38.5337 18.3727H37.8185H37.7887H37.0734C36.3582 18.3727 35.8516 18.2298 35.4641 17.9155C35.1065 17.6012 34.9277 17.1726 34.9277 16.6011V10.572C34.9277 10.0005 35.1065 9.57194 35.4641 9.25762C35.8218 8.94331 36.3582 8.80044 37.0734 8.80044H37.8185H38.5635C39.2787 8.80044 39.7853 8.94331 40.1728 9.25762C40.5304 9.57194 40.7092 10.0005 40.7092 10.572V16.6011H40.6794Z" fill="white"/>
<path d="M50.3639 6.82884V7.48604C50.9599 7.02886 51.7348 6.82884 52.6884 6.82884H54.0295C55.6089 6.82884 56.7712 7.17173 57.5162 7.88608C58.291 8.60043 58.6487 9.71481 58.6487 11.2864V20.4872H56.1752V10.7149C56.1752 10.172 55.9963 9.71481 55.6685 9.4005C55.3407 9.08618 54.8639 8.91474 54.2977 8.91474H52.3904C51.7646 8.91474 51.2877 9.08618 50.9599 9.4005C50.6619 9.71481 50.4831 10.0863 50.4831 10.4577V20.4872H48.0096V6.82884H50.3639Z" fill="white"/>
<path d="M70.9885 6.82884V11.0864V11.6293V25.1162H73.4024V19.8871C73.9985 20.2586 74.6839 20.4872 75.5183 20.4872H76.6806C78.3495 20.4872 79.5713 20.1443 80.3462 19.4585C81.121 18.7727 81.5382 17.6012 81.5382 16.0582V11.6007V11.2007C81.5382 9.65766 81.1508 8.54328 80.3462 7.8575C79.5415 7.17173 78.3197 6.82884 76.621 6.82884H75.5779C74.6243 6.82884 73.9687 7.05743 73.3726 7.48604V6.82884H70.9885ZM73.4024 10.572C73.4024 10.0005 73.5812 9.57194 73.9389 9.25763C74.2965 8.94331 74.8329 8.80044 75.5481 8.80044H76.2932H77.0382C77.7534 8.80044 78.2601 8.94331 78.6475 9.25763C79.0051 9.57194 79.1839 10.0005 79.1839 10.572V16.6011C79.1839 17.1726 79.0051 17.6012 78.6475 17.9155C78.2899 18.2298 77.7534 18.3727 77.0382 18.3727H76.2932H76.2634H75.5481C74.8329 18.3727 74.3263 18.2298 73.9389 17.9155C73.5812 17.6012 73.4024 17.1726 73.4024 16.6011V10.572Z" fill="white"/>
<path d="M12.3383 0L0.626404 6.48628L12.9642 13.3154V36.0603L16.4509 34.1458V29.6026V25.0593L24.6761 20.4875V6.82916L12.3383 0Z" fill="white"/>
<path d="M0 7.5152V20.4878L8.22517 25.0596V29.6028V34.1461L11.7119 36.0605V14.0015L0 7.5152Z" fill="white"/>
<path d="M63.5686 6.80048V8.91495V20.4588H66.0421V18.6587V6.80048H63.5686Z" fill="white"/>
<path d="M66.0397 1.51486H63.5662V3.74363H66.0397V1.51486Z" fill="white"/>
<path d="M92.9215 19.63C92.1765 20.2014 91.1036 20.4872 89.703 20.4872H85.3818V18.4299H90.001C90.5076 18.4299 90.9248 18.3156 91.193 18.1155C91.4612 17.9155 91.6102 17.6012 91.6102 17.2012V15.7439C91.6102 14.9153 91.193 14.5152 90.3586 14.5152H89.2857C87.9447 14.5152 86.9314 14.2295 86.2758 13.6866C85.6202 13.1437 85.2924 12.2579 85.2924 11.0578V10.2577C85.2924 9.02903 85.65 8.17182 86.395 7.62891C87.14 7.08601 88.2129 6.82884 89.6433 6.82884H93.5175V8.85759H89.3453C88.8685 8.85759 88.4811 8.97189 88.1831 9.1719C87.8851 9.37192 87.7361 9.68623 87.7361 10.0863V11.0578C87.7361 11.4864 87.8553 11.7721 88.1235 11.9721C88.3917 12.1722 88.7195 12.2865 89.1069 12.2865H90.0904C91.3718 12.2865 92.3553 12.5722 93.0407 13.1723C93.7261 13.7723 94.054 14.6295 94.054 15.8011V17.0297C94.054 18.2013 93.6665 19.0585 92.9215 19.63Z" fill="white"/>
<path d="M40.6496 6.80057V7.45777C40.0536 7.02916 39.3979 6.80057 38.4443 6.80057H37.4012C35.7026 6.80057 34.4509 7.14345 33.6761 7.82923C32.9012 8.515 32.484 9.62938 32.484 11.1724V11.5724V16.0299C32.484 17.5729 32.8714 18.7445 33.6761 19.4302C34.4509 20.116 35.6728 20.4589 37.3416 20.4589H38.5039C39.3383 20.4589 40.0536 20.2303 40.6198 19.8588V25.0593H43.0337V11.601V11.0581V6.80057H40.6496ZM40.6496 16.6014C40.6496 17.1729 40.4708 17.6015 40.1132 17.9158C39.7555 18.2301 39.2191 18.373 38.5039 18.373H37.7887H37.7588H37.0436C36.3284 18.373 35.8218 18.2301 35.4343 17.9158C35.0767 17.6015 34.8979 17.1729 34.8979 16.6014V10.5723C34.8979 10.0008 35.0767 9.57224 35.4343 9.25792C35.792 8.94361 36.3284 8.80074 37.0436 8.80074H37.7887H38.5337C39.2489 8.80074 39.7555 8.94361 40.143 9.25792C40.5006 9.57224 40.6794 10.0008 40.6794 10.5723V16.6014H40.6496Z" fill="white"/>
<path d="M50.3354 6.80057V7.45777C50.9315 7.00059 51.7063 6.80057 52.66 6.80057H54.001C55.5805 6.80057 56.7427 7.14345 57.4878 7.8578C58.2626 8.57215 58.6202 9.68653 58.6202 11.2581V20.4589H56.1467V10.7152C56.1467 10.1723 55.9679 9.71511 55.6401 9.40079C55.3123 9.08648 54.8355 8.91504 54.2692 8.91504H52.3619C51.7361 8.91504 51.2593 9.08648 50.9315 9.40079C50.6335 9.71511 50.4547 10.0866 50.4547 10.458V20.4875H47.9811V6.80057H50.3354Z" fill="white"/>
<path d="M70.9575 6.80057V11.0581V11.601V25.0879H73.3714V19.8588C73.9675 20.2303 74.6529 20.4589 75.4873 20.4589H76.6496C78.3185 20.4589 79.5403 20.116 80.3151 19.4302C81.09 18.7445 81.5072 17.5729 81.5072 16.0299V11.601V11.201C81.5072 9.65796 81.1198 8.54358 80.3151 7.8578C79.5105 7.17203 78.2887 6.82914 76.59 6.82914H75.5469C74.5933 6.82914 73.9377 7.05773 73.3416 7.48634V6.82914H70.9575V6.80057ZM73.3714 10.5723C73.3714 10.0008 73.5502 9.57224 73.9079 9.25793C74.2655 8.94361 74.8019 8.80074 75.5171 8.80074H76.2622H77.0072C77.7224 8.80074 78.229 8.94361 78.6165 9.25793C78.9741 9.57224 79.1529 10.0008 79.1529 10.5723V16.6014C79.1529 17.1729 78.9741 17.6015 78.6165 17.9158C78.2588 18.2301 77.7224 18.373 77.0072 18.373H76.292H76.2622H75.5469C74.8317 18.373 74.3251 18.2301 73.9377 17.9158C73.58 17.6015 73.4012 17.1729 73.4012 16.6014V10.5723H73.3714Z" fill="white"/>
</svg>
