<svg id="Ebene_1" data-name="Ebene 1" xmlns="http://www.w3.org/2000/svg" viewBox="0 0 100 100"><defs><style>.cls-1{fill:#fff;}</style></defs><path class="cls-1" d="M92.61,0H7.39A7.28,7.28,0,0,0,0,7.15H0v85.7A7.28,7.28,0,0,0,7.39,100H92.61A7.28,7.28,0,0,0,100,92.85h0V7.15A7.27,7.27,0,0,0,92.61,0ZM30.77,64.87H20.08a1.59,1.59,0,0,1-1.4-.73,1.67,1.67,0,0,1,0-1.64L30,42.46a.06.06,0,0,0,0-.06L22.81,29.89a1.46,1.46,0,0,1,1.4-2.31H34.9a3.29,3.29,0,0,1,3,2L45.22,42.4,33.68,62.8A3.25,3.25,0,0,1,30.77,64.87ZM81.3,15.28,57.64,57.12a.09.09,0,0,0,0,.07L72.71,84.72a1.67,1.67,0,0,1,0,1.65,1.57,1.57,0,0,1-1.42.68H60.64a3.35,3.35,0,0,1-3-2S42.5,57.23,42.47,57.16C43.22,55.81,66.25,15,66.25,15a3.12,3.12,0,0,1,2.86-2h10.8a1.59,1.59,0,0,1,1.42.68A1.67,1.67,0,0,1,81.3,15.28Z"/></svg>