<svg width="132" height="30" viewBox="0 0 132 30" fill="none" xmlns="http://www.w3.org/2000/svg">
<g clip-path="url(#clip0_125_235)">
<path fill-rule="evenodd" clip-rule="evenodd" d="M69.7517 16.2083H63.5798V7.73766H61.4459V16.2083C61.447 16.7739 61.6722 17.316 62.0722 17.716C62.4721 18.1159 63.0142 18.3411 63.5798 18.3422H69.7517C70.3173 18.3411 70.8594 18.1159 71.2594 17.716C71.6593 17.316 71.8845 16.7739 71.8857 16.2083V7.73766H69.7517V16.2083ZM49.5358 7.78103L41.6029 7.80706V9.8846L48.8939 9.89761L41.6029 16.2257V18.3336H52.1642V16.2257L44.8689 16.217L52.1642 9.88894L52.1945 7.7767C51.3661 7.73766 49.5358 7.77236 49.5358 7.77236V7.78103ZM103.305 16.2213L103.292 7.77236H101.175V16.2257C101.175 17.3881 102.116 18.3336 103.279 18.3336L110.309 18.3422V16.2213H103.305ZM126.717 7.78971H124.111L121.105 11.9448C121.005 11.8407 118.16 7.9285 118.129 7.80272L115.497 7.78971C115.54 7.9285 120.042 14.5081 120.042 14.5081C120.042 14.5081 119.99 17.1322 120.042 18.3379H122.154V14.5081C122.154 14.5081 126.67 7.93284 126.717 7.78971ZM89.6337 7.79838H81.3062V9.93231H89.6337V12.8773H83.4141C82.2517 12.8773 81.3062 13.8228 81.3062 14.9852V18.3466H83.4401V15.0156H89.6337C90.8134 15.0156 91.7676 14.0614 91.7676 12.8816V9.93665C91.7676 8.75692 90.8134 7.80272 89.6337 7.80272V7.79838ZM129.892 16.2343V18.3422H132C132 17.1799 131.059 16.2343 129.892 16.2343Z" fill="white"/>
<path d="M17.3837 0V4.424H8.69186V0H17.3837Z" fill="white"/>
<path d="M21.6516 4.424V8.69186H26.0756V0H17.2709V4.424H21.6516Z" fill="white"/>
<path d="M26.0756 8.63547V17.4488H21.6516V8.63547H26.0756Z" fill="white"/>
<path d="M21.6516 21.6516H17.3056V26.0756H22.519L26.0756 29.2851V17.3837H21.6516V21.6516Z" fill="white"/>
<path d="M17.3837 21.6516V26.0756H8.69186V21.6516H17.3837Z" fill="white"/>
<path d="M4.424 8.69186V17.3837H0V8.69186H4.424Z" fill="white"/>
<path d="M4.424 8.69186V4.424H8.82631V0H0V8.69186H4.424Z" fill="white"/>
<path d="M0 17.3013V26.0756H8.78728V21.6516H4.424V17.3013H0Z" fill="white"/>
</g>
<defs>
<clipPath id="clip0_125_235">
<rect width="132" height="29.2851" fill="white"/>
</clipPath>
</defs>
</svg>
